<svg width="28" height="28" viewBox="0 0 28 28" xmlns="http://www.w3.org/2000/svg">
    <path d="M21.933 3.733v15.232a4.837 4.837 0 0 1-4.838 4.835H6.067v-2.02L18.836 8.433v1.74c0 .42.342.759.765.759s.764-.34.764-.758v-3.79l-.006-.028c-.001-.054-.017-.106-.032-.158-.011-.044-.017-.089-.036-.129-.017-.04-.047-.071-.073-.108-.032-.046-.061-.092-.103-.13-.007-.007-.01-.016-.017-.022-.028-.023-.061-.032-.091-.05-.046-.03-.091-.06-.143-.08-.052-.018-.102-.023-.155-.03-.036-.006-.07-.023-.108-.023h-3.824a.761.761 0 0 0-.765.758c0 .419.342.758.765.758h2.16L6.067 19.536l.001-15.803h15.866z" fill="#F60" fill-rule="evenodd"/>
</svg>
