<svg width="28" height="28" viewBox="0 0 28 28" xmlns="http://www.w3.org/2000/svg">
    <path d="M26.6 4.667v10.2a8 8 0 0 1-8 8H1.4v-18.2h25.2zm-12.425 5.775a.597.597 0 0 0-.145.61l3.181 9.54c.081.245.31.408.565.408l.037-.001a.596.596 0 0 0 .548-.477l.917-4.512a.596.596 0 0 1 .466-.465l4.512-.918a.594.594 0 0 0 .07-1.149l-9.541-3.18a.592.592 0 0 0-.61.144zM4.267 6.487a.933.933 0 1 0 0 1.866.933.933 0 0 0 0-1.866zm3.733 0a.933.933 0 1 0 0 1.866.933.933 0 0 0 0-1.866z" fill="#F60" fill-rule="evenodd"/>
</svg>
