<svg width="28" height="28" viewBox="0 0 28 28" xmlns="http://www.w3.org/2000/svg">
    <path d="M17.889 3.5a.97.97 0 0 1 .972.963v.962h.972c1.608 0 2.917 1.296 2.917 2.888v11.55c0 1.591-1.309 2.887-2.917 2.887H8.167c-1.608 0-2.917-1.296-2.917-2.887V8.313c0-1.592 1.309-2.888 2.917-2.888h.972v-.962a.97.97 0 0 1 .972-.963.97.97 0 0 1 .972.963v.962h5.834v-.962a.97.97 0 0 1 .972-.963zm2.917 10.588H7.194v5.775c0 .53.437.962.973.962h11.666a.969.969 0 0 0 .973-.962v-5.775zM10.11 16.012a.97.97 0 0 1 .972.962.97.97 0 0 1-.972.962.97.97 0 0 1-.972-.962.97.97 0 0 1 .972-.963zm7.778 0a.97.97 0 0 1 .972.962.97.97 0 0 1-.972.962H14a.97.97 0 0 1-.972-.962.97.97 0 0 1 .972-.963z" fill="#F60" fill-rule="evenodd"/>
</svg>
