<svg width="28" height="28" viewBox="0 0 28 28" xmlns="http://www.w3.org/2000/svg">
    <path d="M22.575 5.25c2.026 0 3.675 1.683 3.675 3.75v10c0 2.067-1.649 3.75-3.675 3.75H5.425c-2.026 0-3.675-1.683-3.675-3.75V9c0-2.067 1.649-3.75 3.675-3.75zm1.225 7.5H4.2V19c0 .689.549 1.25 1.225 1.25h17.15c.676 0 1.225-.561 1.225-1.25v-6.25zm-11.025 2.5c.674 0 1.225.563 1.225 1.25 0 .688-.551 1.25-1.225 1.25h-4.9c-.674 0-1.225-.563-1.225-1.25 0-.688.551-1.25 1.225-1.25zm7.35 0c.674 0 1.225.563 1.225 1.25 0 .688-.551 1.25-1.225 1.25h-2.45c-.674 0-1.225-.563-1.225-1.25 0-.688.551-1.25 1.225-1.25z" fill="#F60" fill-rule="evenodd"/>
</svg>
