<svg width="28" height="28" viewBox="0 0 28 28" xmlns="http://www.w3.org/2000/svg">
    <path d="m23.803 16.93-6.808 2.805a.87.87 0 0 1-1.13-.433.82.82 0 0 1 .448-1.09l6.808-2.805a.87.87 0 0 1 1.129.433.82.82 0 0 1-.447 1.09m-7.49-6.307L23.12 7.82a.87.87 0 0 1 1.129.433.82.82 0 0 1-.447 1.09l-6.808 2.804a.87.87 0 0 1-1.13-.432.819.819 0 0 1 .448-1.09m7.937 1.645a.819.819 0 0 1-.447 1.09l-6.808 2.805a.87.87 0 0 1-1.13-.433.82.82 0 0 1 .448-1.091l6.808-2.804a.872.872 0 0 1 1.129.433m1.417 6.527V4.486c0-.541-.566-.905-1.072-.69l-10.29 4.377a.779.779 0 0 1-.61 0L3.406 3.796c-.507-.215-1.073.149-1.073.69v14.31c0 .3.182.572.463.69l11.171 4.753v.028l.033-.014.033.014v-.028l11.171-4.753a.751.751 0 0 0 .463-.69" fill="#F60" fill-rule="evenodd"/>
</svg>
