<svg xmlns="http://www.w3.org/2000/svg" width="100" height="41" viewBox="0 0 100 41">
    <g fill="none" fill-rule="evenodd">
        <path fill="#F60" d="M60.754 11.367H59.12c-.625 0-1.132.507-1.132 1.133v9.59c0 2.518-1.38 4.25-4.142 4.25-2.817 0-4.198-1.732-4.198-4.25V11.367h-3.899V22.226c0 4.44 2.572 7.528 8.097 7.528 5.47 0 8.042-3.06 8.042-7.555V12.5c0-.626-.507-1.133-1.133-1.133M42.152 26.044H35.65V11.367H31.804V28.296c0 .625.506 1.133 1.131 1.133h9.218c.625 0 1.132-.508 1.132-1.133v-1.12c0-.625-.507-1.132-1.133-1.132M98.202 11.367h-1.67c-.394 0-.76.205-.966.541l-.94 1.535-3.17 5.181-2.589-4.18-1.574-2.541-.332-.536H82.575l6.775 10.387c.12.184.184.4.184.62V28.295c0 .626.506 1.133 1.132 1.133h1.58c.626 0 1.133-.507 1.133-1.133V22.37c0-.218.063-.431.181-.615l.462-.713 4.918-7.599.213-.328a1.133 1.133 0 0 0-.95-1.748M20.728 14.481c.183 0 .362.013.539.032.035.003.07.006.105.011.17.022.336.052.499.09.03.006.058.014.088.022.153.039.303.083.449.135l.05.017a4.829 4.829 0 0 1 .542.24c.143.073.282.151.415.236l.053.035c.123.082.242.168.356.259l.062.047a5.064 5.064 0 0 1 .719.724c.198.245.369.507.51.779l.896-.441.296-.146 2.111-1.038a9.893 9.893 0 0 0-.738-1.119l-.013-.022-.044-.055-.103-.13a13.099 13.099 0 0 0-.32-.375 8.298 8.298 0 0 0-.22-.234c-.04-.04-.078-.081-.119-.12a9.418 9.418 0 0 0-.286-.27c-.026-.022-.05-.046-.075-.069a7.737 7.737 0 0 0-.388-.317c-.035-.028-.073-.054-.109-.081a8.49 8.49 0 0 0-.464-.318 7.343 7.343 0 0 0-.788-.44c-.055-.027-.11-.055-.165-.08a7.563 7.563 0 0 0-.446-.187c-.024-.01-.046-.02-.07-.028a8.165 8.165 0 0 0-.545-.183c-.055-.016-.114-.03-.17-.045a9.108 9.108 0 0 0-.63-.149 8.172 8.172 0 0 0-.638-.104 9.923 9.923 0 0 0-.45-.047c-.072-.005-.142-.013-.214-.018a11.3 11.3 0 0 0-.695-.023c-5.28 0-9.477 3.791-9.477 9.342 0 5.552 4.197 9.343 9.477 9.343.276 0 .54-.014.8-.033l.092-.008c2.893-.238 4.785-1.625 6.035-3.254a1.134 1.134 0 0 0-.406-1.712l-1.234-.597c-.489-.236-1.063-.083-1.4.341a4.898 4.898 0 0 1-2.658 1.7c-.061.014-.124.025-.186.038a5.192 5.192 0 0 1-.34.06c-.059.008-.117.016-.175.022-.173.017-.349.03-.528.03-3.141 0-5.524-2.518-5.524-5.93s2.383-5.93 5.524-5.93M67.677 11.367h-1.133v16.929c0 .626.507 1.133 1.133 1.133h10.516c.625 0 1.132-.507 1.132-1.133V27.23c0-.625-.507-1.132-1.132-1.132H70.39V21.9h7.614c.625 0 1.132-.506 1.132-1.132V19.73c0-.625-.507-1.132-1.133-1.132H70.39V14.67h7.804c.624 0 1.131-.506 1.131-1.131V11.367H67.677z"/>
        <path fill="#FFC300" d="M21.316.289h-2c-.672 0-1.217.544-1.217 1.216V7.03h4.433V1.505c0-.672-.544-1.216-1.216-1.216M11.563 8.524l-.835-.834-1.945-1.945-.271-.271a1.214 1.214 0 0 0-1.717 0L5.378 6.891a1.214 1.214 0 0 0 0 1.717l.876.876 3.033 3.033 3.135-3.134-.859-.859zM6.743 22.692V18.26H1.215C.544 18.26 0 18.804 0 19.475v2.002c0 .671.544 1.215 1.215 1.215H6.743zM11.537 30.555l-1.365-1.365-.885-.885-.884.885-3 2.998a1.252 1.252 0 0 0 0 1.77l1.366 1.365c.488.488 1.28.488 1.77 0l2.998-2.999.885-.885-.885-.884zM19.315 33.79H18.1v5.529c0 .67.545 1.215 1.216 1.215h2.002c.671 0 1.215-.544 1.215-1.215V33.79H19.315z"/>
        <path fill="#F60" d="M31.805 40.474h4.385V38.98h-2.672v-5.153h-1.713v6.647zm7.138 0h4.873V39.03h-3.16v-1.198h3.09v-1.454h-3.09V35.27h3.16v-1.443h-4.873v6.647zm12.33 0h1.863l-2.511-6.647H48.47l-2.5 6.647h1.863l.339-1.007h2.76l.34 1.007zm-1.725-5.154l.937 2.703h-1.863l.926-2.703zm9.65 5.154h1.963l-1.355-2.442c.618-.22 1.325-.837 1.325-1.994 0-1.236-.837-2.211-2.312-2.211H55.49v6.647h1.713V38.22h.878l1.117 2.253zm.19-4.455c0 .459-.379.748-.829.748h-1.356V35.27h1.356c.45 0 .828.29.828.749zm9.08 4.455h1.654v-6.647H68.4v3.827l-2.692-3.827h-1.764v6.647h1.713v-4.016l2.813 4.016zm4.716 0h1.714v-6.647h-1.714v6.647zm9.3 0h1.654v-6.647h-1.723v3.827l-2.693-3.827H77.96v6.647h1.713v-4.016l2.812 4.016zm4.377-3.319c0 2.114 1.613 3.438 3.597 3.438 1.257 0 2.223-.508 2.94-1.294v-2.602h-3.21v1.424h1.527v.56c-.27.219-.738.399-1.257.399-1.087 0-1.854-.839-1.854-1.925 0-1.087.767-1.925 1.854-1.925.629 0 1.138.35 1.406.789l1.435-.759c-.488-.826-1.385-1.543-2.84-1.543-1.985 0-3.598 1.324-3.598 3.438z"/>
    </g>
</svg>
